HIERARCHY
ROOT hip
{
  OFFSET 0 0 0
  CHANNELS 6 Xposition Yposition Zposition Zrotation Yrotation Xrotation
  JOINT abdomen
  {
    OFFSET 0 20.6881 -0.73152
    CHANNELS 3 Zrotation Xrotation Yrotation
    JOINT chest
    {
      OFFSET 0 11.7043 -0.48768
      CHANNELS 3 Zrotation Xrotation Yrotation
      JOINT neck
      {
        OFFSET 0 22.1894 -2.19456
        CHANNELS 3 Zrotation Xrotation Yrotation
        JOINT head
        {
          OFFSET -0.24384 7.07133 1.2192
          CHANNELS 3 Zrotation Xrotation Yrotation
          JOINT leftEye
          {
            OFFSET 4.14528 8.04674 8.04672
            CHANNELS 3 Zrotation Xrotation Yrotation
            End Site
            {
              OFFSET 1 0 0
            }
          }
          JOINT rightEye
          {
            OFFSET -3.6576 8.04674 8.04672
            CHANNELS 3 Zrotation Xrotation Yrotation
            End Site
            {
              OFFSET 1 0 0
            }
          }
        }
      }
      JOINT rCollar
      {
        OFFSET -2.68224 19.2634 -4.8768
        CHANNELS 3 Zrotation Xrotation Yrotation
        JOINT rShldr
        {
          OFFSET -8.77824 -1.95073 1.46304
          CHANNELS 3 Zrotation Xrotation Yrotation
          JOINT rForeArm
          {
            OFFSET -28.1742 -1.7115 0.48768
            CHANNELS 3 Zrotation Xrotation Yrotation
            JOINT rHand
            {
              OFFSET -22.5879 0.773209 7.07136
              CHANNELS 3 Zrotation Xrotation Yrotation
              JOINT rThumb1
              {
                OFFSET -1.2192 -0.487915 3.41376
                CHANNELS 3 Zrotation Xrotation Yrotation
                JOINT rThumb2
                {
                  OFFSET -3.37035 -0.52449 3.41376
                  CHANNELS 3 Zrotation Xrotation Yrotation
                  End Site
                  {
                    OFFSET -1.78271 -1.18214 1.43049
                  }
                }
              }
              JOINT rIndex1
              {
                OFFSET -7.75947 0.938293 5.60832
                CHANNELS 3 Zrotation Xrotation Yrotation
                JOINT rIndex2
                {
                  OFFSET -2.54057 -0.884171 1.56538
                  CHANNELS 3 Zrotation Xrotation Yrotation
                  End Site
                  {
                    OFFSET -1.62519 -0.234802 1.16502
                  }
                }
              }
              JOINT rMid1
              {
                OFFSET -8.24714 1.18213 3.41376
                CHANNELS 3 Zrotation Xrotation Yrotation
                JOINT rMid2
                {
                  OFFSET -3.10165 -0.590103 1.0647
                  CHANNELS 3 Zrotation Xrotation Yrotation
                  End Site
                  {
                    OFFSET -2.48547 -0.328903 0.83742
                  }
                }
              }
              JOINT rRing1
              {
                OFFSET -8.82822 0.546677 1.51678
                CHANNELS 3 Zrotation Xrotation Yrotation
                JOINT rRing2
                {
                  OFFSET -2.60934 -0.819778 -0.0198488
                  CHANNELS 3 Zrotation Xrotation Yrotation
                  End Site
                  {
                    OFFSET -2.33842 -0.294052 0.168128
                  }
                }
              }
              JOINT rPinky1
              {
                OFFSET -8.27202 -0.0477905 -0.4584
                CHANNELS 3 Zrotation Xrotation Yrotation
                JOINT rPinky2
                {
                  OFFSET -1.82734 -0.647385 -0.700984
                  CHANNELS 3 Zrotation Xrotation Yrotation
                  End Site
                  {
                    OFFSET -1.69225 -0.51767 -0.607171
                  }
                }
              }
            }
          }
        }
      }
      JOINT lCollar
      {
        OFFSET 2.68224 19.2634 -4.8768
        CHANNELS 3 Zrotation Xrotation Yrotation
        JOINT lShldr
        {
          OFFSET 8.77824 -1.95073 1.46304
          CHANNELS 3 Zrotation Xrotation Yrotation
          JOINT lForeArm
          {
            OFFSET 28.1742 -1.7115 0.48768
            CHANNELS 3 Zrotation Xrotation Yrotation
            JOINT lHand
            {
              OFFSET 22.5879 0.773209 7.07136
              CHANNELS 3 Zrotation Xrotation Yrotation
              JOINT lThumb1
              {
                OFFSET 1.2192 -0.487915 3.41376
                CHANNELS 3 Zrotation Xrotation Yrotation
                JOINT lThumb2
                {
                  OFFSET 3.37035 -0.52449 3.41376
                  CHANNELS 3 Zrotation Xrotation Yrotation
                  End Site
                  {
                    OFFSET 1.78271 -1.18214 1.43049
                  }
                }
              }
              JOINT lIndex1
              {
                OFFSET 7.75947 0.938293 5.60832
                CHANNELS 3 Zrotation Xrotation Yrotation
                JOINT lIndex2
                {
                  OFFSET 2.54057 -0.884171 1.56538
                  CHANNELS 3 Zrotation Xrotation Yrotation
                  End Site
                  {
                    OFFSET 1.62519 -0.234802 1.16502
                  }
                }
              }
              JOINT lMid1
              {
                OFFSET 8.24714 1.18213 3.41376
                CHANNELS 3 Zrotation Xrotation Yrotation
                JOINT lMid2
                {
                  OFFSET 3.10165 -0.590103 1.0647
                  CHANNELS 3 Zrotation Xrotation Yrotation
                  End Site
                  {
                    OFFSET 2.48547 -0.328903 0.83742
                  }
                }
              }
              JOINT lRing1
              {
                OFFSET 8.82822 0.546677 1.51678
                CHANNELS 3 Zrotation Xrotation Yrotation
                JOINT lRing2
                {
                  OFFSET 2.60934 -0.819778 -0.0198488
                  CHANNELS 3 Zrotation Xrotation Yrotation
                  End Site
                  {
                    OFFSET 2.33842 -0.294052 0.168128
                  }
                }
              }
              JOINT lPinky1
              {
                OFFSET 8.27202 -0.0477905 -0.4584
                CHANNELS 3 Zrotation Xrotation Yrotation
                JOINT lPinky2
                {
                  OFFSET 1.82734 -0.647385 -0.700984
                  CHANNELS 3 Zrotation Xrotation Yrotation
                  End Site
                  {
                    OFFSET 1.69225 -0.51767 -0.607171
                  }
                }
              }
            }
          }
        }
      }
    }
  }
  JOINT rButtock
  {
    OFFSET -8.77824 4.35084 1.2192
    CHANNELS 3 Zrotation Xrotation Yrotation
    JOINT rThigh
    {
      OFFSET 0 -1.70687 -2.19456
      CHANNELS 3 Zrotation Xrotation Yrotation
      JOINT rShin
      {
        OFFSET 0 -36.8199 0.73152
        CHANNELS 3 Zrotation Xrotation Yrotation
        JOINT rFoot
        {
          OFFSET 0.73152 -45.1104 -5.12064
          CHANNELS 3 Zrotation Xrotation Yrotation
          End Site
          {
            OFFSET -1.1221 -3.69964 12.103
          }
        }
      }
    }
  }
  JOINT lButtock
  {
    OFFSET 8.77824 4.35084 1.2192
    CHANNELS 3 Zrotation Xrotation Yrotation
    JOINT lThigh
    {
      OFFSET 0 -1.70687 -2.19456
      CHANNELS 3 Zrotation Xrotation Yrotation
      JOINT lShin
      {
        OFFSET 0 -36.8199 0.73152
        CHANNELS 3 Zrotation Xrotation Yrotation
        JOINT lFoot
        {
          OFFSET -0.73152 -45.1104 -5.12064
          CHANNELS 3 Zrotation Xrotation Yrotation
          End Site
          {
            OFFSET 1.1221 -3.69964 12.103
          }
        }
      }
    }
  }
}
MOTION
Frames:	7
Frame Time:	0.03333
24.7048 62.5557 18.1446 -11.436822 -24.534485 1.593571 0.409815 22.155927 12.369084 -0.079016 -9.790064 3.802816 -2.15994 12.7259 1.569374 4.608456 -30.048478 4.818506 -0.00261 -0.068228 -0.118314 -0.00921 0.007277 -0.046126 -0.111178 0.088052 -0.021855 54.899606 47.616129 4.83431 -25.773396 -23.015044 56.073089 -0.360969 17.257841 3.334179 0.010418 0.096632 -0.229985 -0.061294 -0.137104 -0.096568 -0.010229 -0.054189 -0.169532 7.65955 5.449992 0.346265 -0.019286 0.259334 -0.104487 2.818465 0.911161 0.223465 -0.017583 0.091969 -0.011454 10.268751 0.816111 -0.13178 0.036181 0.018798 -0.058959 2.320922 -0.732049 -0.076975 -0.073494 -0.015755 -0.066482 -44.835028 36.180203 -27.956424 22.267785 -14.195566 -42.668985 0.283003 3.190405 -0.588843 -0.031235 -0.147804 0.034445 0.027448 -0.060209 -0.084633 0.113408 -0.227072 0.101154 -7.613279 5.332417 -0.312712 0.1654 0.093035 -0.105657 -2.947634 1.124366 -0.169167 -0.063238 0.021788 0.075409 -10.270561 0.607837 0.135335 0.106819 -0.096373 -0.030446 -2.162324 -0.753568 0.067197 -0.039222 0.009936 0.01327 -13.486455 -0.539015 -6.583763 -0.795658 46.073583 1.691921 -13.265899 -12.009377 -31.098939 -0.309635 -0.095629 -0.020119 52.870135 -45.632922 49.439636 1.107782 75.08033 -1.226212 1.628401 -1.238793 7.819118
24.469099999999997 63.909099999999995 18.421100000000003 -10.817829 -24.73874 2.910962 -0.1968 21.513992 13.007233 -0.098277 -9.732311 3.988784 -2.277527 12.697145 1.198414 4.809623 -30.8699 4.263389 0.016347 -0.077559 -0.101774 -0.026908 0.011805 -0.047675 -0.102711 0.088971 0.006964 55.54708 48.505404 4.843469 -26.403881 -24.39409 57.911607 -0.304538 15.109842 3.247891 0.005807 0.099347 -0.218172 -0.043902 -0.136538 -0.084108 0.009147 -0.058285 -0.145238 7.651065 5.474312 0.337794 0.009712 0.242514 -0.077678 2.866429 0.881636 0.212485 -0.048535 0.092731 -0.024544 10.277028 0.783041 -0.11084 0.010928 0.0073 -0.057234 2.354412 -0.739338 -0.06536 -0.054939 -0.005939 -0.037536 -45.464566 36.405202 -27.169281 21.091152 -12.565951 -39.905838 0.409244 5.513219 -1.034213 -0.031297 -0.145946 0.023855 0.003442 -0.076042 -0.073139 0.124938 -0.209278 0.061536 -7.594416 5.354786 -0.31683 0.163629 0.09864 -0.121557 -2.938397 1.104179 -0.169878 -0.073614 0.021248 0.051296 -10.331635 0.5322 0.141644 0.063741 -0.093628 -0.015717 -2.156165 -0.710687 0.06635 -0.056605 -0.003829 -0.006668 -12.916209 -0.070685 -6.363247 -0.813692 43.897019 1.75813 -13.812066 -11.658007 -32.564589 -0.256487 -0.066086 -0.037201 51.844874 -44.714746 49.787742 0.581574 72.770927 -0.774114 0.968782 1.417874 7.906787
24.2173 64.9192 18.4722 -9.835175 -24.46775 4.81612 -0.76399 20.54415 13.656669 -0.086613 -9.612515 4.182748 -2.435701 12.66868 0.770885 5.141071 -31.475222 3.628052 0.035659 -0.0829 -0.068054 -0.033964 -0.000313 -0.043211 -0.0721 0.085863 0.02675 56.327936 50.234286 4.833552 -27.085316 -26.071199 60.120456 -0.227695 12.321255 3.153908 0.003092 0.108678 -0.199552 -0.048551 -0.121719 -0.064456 0.027973 -0.070885 -0.113102 7.645959 5.512529 0.339399 0.030663 0.216274 -0.047988 2.915084 0.852528 0.203903 -0.063571 0.094296 -0.023745 10.286814 0.753607 -0.087598 -0.011472 0.013148 -0.052432 2.374348 -0.752916 -0.06582 -0.016411 0.000162 -0.003629 -47.130791 36.561145 -25.623755 19.619612 -10.883921 -36.879024 0.560717 9.014835 -1.69477 -0.029402 -0.134259 0.002153 0.00296 -0.091084 -0.048384 0.121616 -0.178319 0.01677 -7.584426 5.374699 -0.330072 0.143759 0.09001 -0.130041 -2.935182 1.082061 -0.158577 -0.086195 0.008863 0.025878 -10.38017 0.488033 0.138712 0.031393 -0.080896 -0.006344 -2.152276 -0.666514 0.072474 -0.078816 -0.012837 -0.033502 -12.050661 -0.56324 -6.398491 -0.873898 42.806317 1.77715 -13.659279 -11.311004 -32.673 -0.201038 -0.044645 -0.070237 49.951379 -43.976847 49.268121 0.146522 70.239865 -0.433806 0.38456 3.105299 8.405766
24.009900000000002 65.6343 18.335 -8.616756 -23.683399 7.172643 -1.211994 19.380924 14.042737 -0.010517 -9.461657 4.295952 -2.61545 12.646326 0.269607 5.520037 -31.770113 2.859901 0.04992 -0.083555 -0.02878 -0.03223 -0.025011 -0.03419 -0.030382 0.081507 0.037327 57.346297 52.448969 4.685321 -27.75927 -28.054307 62.729444 -0.131756 8.44372 2.928291 0.002108 0.124303 -0.177808 -0.068783 -0.101774 -0.040425 0.045873 -0.089165 -0.07792 7.645302 5.556737 0.345943 0.047604 0.183404 -0.019758 2.951978 0.824577 0.197153 -0.06545 0.09315 -0.013014 10.298397 0.731431 -0.065095 -0.02561 0.031199 -0.040778 2.375887 -0.765829 -0.076567 0.0334 0.005812 0.030102 -49.447515 36.952124 -23.902296 18.206979 -9.588167 -34.332283 0.748981 12.759405 -2.423033 -0.02274 -0.112576 -0.023887 0.018653 -0.099638 -0.012721 0.099179 -0.142693 -0.02655 -7.586527 5.392792 -0.350765 0.111936 0.072904 -0.129715 -2.935961 1.056647 -0.140354 -0.098556 -0.013718 0.004863 -10.411855 0.473654 0.127623 0.011253 -0.060756 -0.00027 -2.149582 -0.630835 0.08436 -0.102846 -0.01529 -0.062471 -11.058845 -2.480604 -6.730219 -0.949719 42.806541 1.757016 -12.805924 -11.045188 -31.115399 -0.146567 -0.036594 -0.104726 47.466225 -43.692016 47.959189 -0.141371 67.872184 -0.263518 0.00604 3.43186 9.130446
23.8585 66.1644 18.0564 -7.24124 -22.350893 9.590402 -1.559518 18.167045 13.944375 0.172471 -9.302823 4.248588 -2.804575 12.625017 -0.283612 5.867164 -31.637429 1.948969 0.055531 -0.081468 0.006429 -0.027041 -0.055243 -0.024767 0.009373 0.075288 0.041078 58.707154 54.487502 4.25109 -28.349919 -30.238602 65.669767 -0.048585 3.128088 2.431303 0.00279 0.142233 -0.154959 -0.094567 -0.081141 -0.017988 0.063233 -0.106271 -0.046778 7.650449 5.596271 0.355071 0.061772 0.146892 0.004321 2.971824 0.800798 0.189849 -0.059417 0.09015 0.002062 10.310756 0.720799 -0.046453 -0.02828 0.055325 -0.024151 2.363037 -0.771476 -0.094219 0.081917 0.010299 0.059118 -51.732581 37.938049 -22.743629 17.280414 -9.018249 -32.992322 0.953627 15.780382 -3.045057 -0.011542 -0.081588 -0.047266 0.042241 -0.099261 0.027671 0.061644 -0.109476 -0.061644 -7.600009 5.410453 -0.376359 0.076817 0.052768 -0.118124 -2.937141 1.028119 -0.119631 -0.106457 -0.039775 -0.00981 -10.42782 0.482353 0.112726 0.001463 -0.037186 0.003209 -2.146501 -0.608214 0.099231 -0.123372 -0.012411 -0.087281 -10.142266 -5.889105 -7.173397 -0.992957 43.593063 1.696667 -11.494156 -10.910088 -28.15814 -0.097848 -0.039491 -0.126334 44.392652 -43.911865 45.599293 -0.285334 66.003187 -0.264556 -0.036731 2.311614 9.866426
23.744799999999998 66.6291 17.685699999999997 -5.848056 -20.474342 11.504379 -1.843943 17.009545 13.299089 0.455008 -9.159046 4.018873 -3.008594 12.610444 -0.843177 6.14167 -31.019448 0.927682 0.051711 -0.079045 0.030817 -0.022738 -0.083209 -0.019278 0.037604 0.065133 0.040287 60.42072 55.753555 3.437069 -28.774851 -32.356073 68.648003 -0.055266 -3.421417 1.607268 0.006164 0.157489 -0.131295 -0.116993 -0.061388 -0.002343 0.078843 -0.115729 -0.023995 7.661867 5.623148 0.365539 0.071686 0.110341 0.022965 2.976384 0.784093 0.178856 -0.048828 0.086673 0.015174 10.32321 0.722686 -0.034837 -0.021179 0.079032 -0.007877 2.344291 -0.767053 -0.114535 0.118689 0.009899 0.078752 -53.319487 39.719589 -22.688063 17.142592 -9.321451 -33.282578 1.131264 17.356868 -3.413277 0.001077 -0.043975 -0.061698 0.065875 -0.091029 0.063851 0.017967 -0.083205 -0.085237 -7.620385 5.426684 -0.403111 0.044489 0.033822 -0.095953 -2.93653 0.998617 -0.099228 -0.105923 -0.060843 -0.017172 -10.430366 0.504845 0.098252 -0.001868 -0.014839 0.004433 -2.142188 -0.599506 0.113945 -0.134811 -0.006316 -0.102492 -9.425256 -10.327194 -7.585227 -0.973865 44.789983 1.605717 -10.093554 -10.965496 -24.46397 -0.058913 -0.046453 -0.127014 40.579981 -44.421666 41.820203 -0.307515 64.719669 -0.398423 0.227572 0.128495 10.37524
23.6429 67.09859999999999 17.2673 -4.622035 -18.126763 12.44552 -2.071677 15.9526 12.237184 0.776413 -9.055261 3.65442 -3.244273 12.621782 -1.373848 6.360928 -29.993482 -0.151046 0.040781 -0.077558 0.041338 -0.021059 -0.102543 -0.020358 0.050379 0.051294 0.036425 62.324173 55.973434 2.336042 -28.991921 -34.072071 71.22155 -0.222219 -10.314227 0.539926 0.012641 0.165999 -0.106163 -0.131449 -0.043524 0.004517 0.08991 -0.114795 -0.009593 7.678716 5.634651 0.376453 0.075516 0.077056 0.035736 2.972204 0.776882 0.162662 -0.035542 0.082622 0.022213 10.336181 0.733228 -0.031613 -0.01009 0.096161 0.003148 2.326843 -0.75389 -0.13445 0.139814 0.002177 0.085743 -53.778361 42.187638 -23.892971 17.823183 -10.453115 -35.160831 1.241633 17.192995 -3.452837 0.011446 -0.005269 -0.06339 0.084372 -0.078224 0.088474 -0.022645 -0.065876 -0.098518 -7.641126 5.439413 -0.427573 0.017699 0.018135 -0.067629 -2.933744 0.971339 -0.080856 -0.095755 -0.071756 -0.0169 -10.421493 0.531773 0.08663 -0.002881 0.002395 0.003892 -2.137745 -0.602738 0.126041 -0.134556 0.001992 -0.105655 -8.936394 -15.07713 -7.998127 -0.905212 46.132988 1.50967 -8.894981 -11.267177 -20.715645 -0.032165 -0.051557 -0.107009 36.025119 -44.823749 36.617554 -0.235561 63.892512 -0.606897 0.636983 -2.480851 10.538769
